<?xml version="1.0" encoding="utf-8"?>
<!-- Generator: Adobe Illustrator 21.1.0, SVG Export Plug-In . SVG Version: 6.00 Build 0)  -->
<svg version="1.1" id="Layer_1" xmlns="http://www.w3.org/2000/svg" xmlns:xlink="http://www.w3.org/1999/xlink" x="0px" y="0px"
	 viewBox="0 0 300 300" style="enable-background:new 0 0 300 300;" xml:space="preserve">
<style type="text/css">
	.st0{fill:#4672A8;}
</style>
<g>
	<path d="M135.7,129.1c4.3-5.2,7.5-8.8,9.3-11s5.8-6.6,11.8-13.4l41.5-46.5l21.2,8.3L134,159.2l-18-7l0-126.1l21.3,8.3l-1,62.3
		c-0.2,9-0.3,14.9-0.4,17.8c-0.1,2.9-0.3,7.7-0.6,14.4L135.7,129.1z"/>
</g>
<g>
	<path class="st0" d="M128,189c-1.3,6.6-2.2,11.3-2.8,14.2c-0.6,2.8-1.9,8.6-3.8,17.4l-13.7,60.8l-22.5,3.1l29.7-122.6l19.1-2.6
		l61.3,110.2l-22.7,3.1l-29.4-54.9c-4.2-7.9-7-13.2-8.3-15.7c-1.3-2.6-3.5-6.9-6.5-12.9L128,189z"/>
</g>
</svg>
